<svg xmlns="http://www.w3.org/2000/svg" style="display:none">
  <symbol id="ic-wind" viewBox="0 0 48 48"><path d="M8 20h24c2.2 0 4-1.8 4-4s-1.8-4-4-4-4 1.8-4 4" stroke="#2c7be5" stroke-width="2.5" fill="none" stroke-linecap="round"/><path d="M4 28h28c4.4 0 8-3.6 8-8s-3.6-8-8-8" stroke="#2c7be5" stroke-width="2.5" fill="none" stroke-linecap="round"/><path d="M12 36h18c2.2 0 4 1.8 4 4s-1.8 4-4 4-4-1.8-4-4" stroke="#2c7be5" stroke-width="2.5" fill="none" stroke-linecap="round"/></symbol>
  <symbol id="ic-droplet" viewBox="0 0 48 48"><path d="M24 6C18 14 12 22 12 28c0 6.6 5.4 12 12 12s12-5.4 12-12c0-6-6-14-12-22z" stroke="#2c7be5" stroke-width="2.5" fill="none" stroke-linecap="round"/><path d="M20 26c0 2.2 1.8 4 4 4" stroke="#2c7be5" stroke-width="2.5" fill="none" stroke-linecap="round"/></symbol>
  <symbol id="ic-shield" viewBox="0 0 48 48"><path d="M24 4L6 12v8c0 14 8 22 18 24 10-2 18-10 18-24v-8L24 4z" stroke="#2c7be5" stroke-width="2.5" fill="none" stroke-linejoin="round"/><path d="M18 24l4 4 8-8" stroke="#2c7be5" stroke-width="2.5" fill="none" stroke-linecap="round" stroke-linejoin="round"/></symbol>
  <symbol id="ic-phone" viewBox="0 0 48 48"><path d="M38 30l-8-2-4 4c-4-2-8-6-10-10l4-4-2-8H8c0 18 14 32 32 32v-8z" stroke="#2c7be5" stroke-width="2.5" fill="none" stroke-linecap="round" stroke-linejoin="round"/></symbol>
  <symbol id="ic-search" viewBox="0 0 48 48"><circle cx="22" cy="22" r="14" stroke="#2c7be5" stroke-width="2.5" fill="none"/><path d="M32 32l10 10" stroke="#2c7be5" stroke-width="2.5" fill="none" stroke-linecap="round"/></symbol>
  <symbol id="ic-tools" viewBox="0 0 48 48"><path d="M16 8v32" stroke="#2c7be5" stroke-width="2.5" fill="none" stroke-linecap="round"/><path d="M10 14l6-6 6 6" stroke="#2c7be5" stroke-width="2.5" fill="none" stroke-linecap="round" stroke-linejoin="round"/><path d="M30 18l4-4 4 4" stroke="#2c7be5" stroke-width="2.5" fill="none" stroke-linecap="round" stroke-linejoin="round"/><path d="M34 14v26" stroke="#2c7be5" stroke-width="2.5" fill="none" stroke-linecap="round"/></symbol>
  <symbol id="ic-star" viewBox="0 0 48 48"><path d="M24 4l6 12 13 2-9 8 2 12-12-6-12 6 2-12-9-8 13-2z" stroke="#2c7be5" stroke-width="2.5" fill="none" stroke-linejoin="round"/></symbol>
</svg>
